<?xml version="1.0" encoding="utf-8"?>
<!-- Generator: Adobe Illustrator 18.1.1, SVG Export Plug-In . SVG Version: 6.00 Build 0)  -->
<svg version="1.1" id="Layer_1" xmlns="http://www.w3.org/2000/svg" xmlns:xlink="http://www.w3.org/1999/xlink" x="0px" y="0px"
	 viewBox="0 76 960 398" enable-background="new 0 76 960 398" xml:space="preserve">
<rect x="11.7" y="96.6" fill="none" width="1057.9" height="385.8"/>
<g enable-background="new    ">
	<path d="M95,190.9c-6.6,4.4-16.8,6.6-26.3,6.6H19V96.6h41.6c8.8,0,18.3,0.7,25.6,3.7c7.3,2.9,14.9,10.2,14.9,21.9
		s-7.6,19.7-14.2,22.4c11.7,3.2,19.3,12,19.3,23.7S101.6,186.5,95,190.9z M65.8,121.9c-2.2-1.5-3.7-1.5-7.3-1.5h-6.6V135h6.6
		c3.7,0,5.1-0.1,7.3-1.6c2.2-1.5,2.9-3.2,2.9-5.7C68.7,125.1,67.9,123.4,65.8,121.9z M70.1,158.7c-2.2-1.5-3.7-1.8-7.3-1.8h-11V173
		h11c3.7,0,5.1-0.4,7.3-1.9s2.9-3.7,2.9-6.1C73.1,162.4,72.3,160.2,70.1,158.7z"/>
</g>
<g enable-background="new    ">
	<path d="M182.6,197.4h-67.2V96.6h32.9v73.8h34.3L182.6,197.4L182.6,197.4z"/>
</g>
<g enable-background="new    ">
	<path d="M246.6,199.2c-31.4,0-54.8-19.1-54.8-52S215.2,95,246.6,95s54.8,19.3,54.8,52.2S278.1,199.2,246.6,199.2z M246.6,122.9
		c-13.2,0-21.6,9.6-21.6,23.5s8.5,23.5,21.6,23.5c13.2,0,21.5-9.6,21.5-23.5S259.8,122.9,246.6,122.9z"/>
</g>
<g enable-background="new    ">
	<path d="M361.6,199.2c-31.4,0-54.8-19.1-54.8-52S330.2,95,361.6,95s54.8,19.3,54.8,52.2S393.1,199.2,361.6,199.2z M361.6,122.9
		c-13.2,0-21.6,9.6-21.6,23.5s8.5,23.5,21.6,23.5c13.2,0,21.5-9.6,21.5-23.5S374.8,122.9,361.6,122.9z"/>
</g>
<g enable-background="new    ">
	<path d="M502.9,186.5c-9.5,7.3-22.6,11-40.2,11h-38V96.6h38c17.5,0,30.7,3.7,40.2,11c9.5,7.3,16.8,19,16.8,39.5
		S512.4,179.2,502.9,186.5z M480.6,128.8c-2.9-2.9-8-5.1-15.3-5.1h-7.6v46h7.6c7.3,0,12.4-2.2,15.3-5.1c2.9-2.9,5.8-7.3,5.8-17.5
		C486.4,136.8,483.7,131.7,480.6,128.8z"/>
</g>
<g enable-background="new    ">
	<path d="M622,96.6L587,158v39.5h-33V158l-35-61.4h36.5l14.9,34l15-34C585.4,96.6,622,96.6,622,96.6z"/>
</g>
<g enable-background="new    ">
	<path d="M138.1,328.9h-32.4l-1.2-57.7l-13.2,57.7H62.8l-13.2-57.7l-1.2,57.7H16.1l5.8-100.8h42.4L77,282.9l12.9-54.8h42.4
		L138.1,328.9z"/>
</g>
<g enable-background="new    ">
	<path d="M250.7,328.9h-35.8l-3.9-14.2h-28.8l-3.8,14.2h-34.3l35.1-100.8h36.5L250.7,328.9z M204.1,289.5l-7.5-27l-7.5,27H204.1z"/>
</g>
<g enable-background="new    ">
	<path d="M348.6,328.9h-38l-16.1-33.6h-4.2v33.6h-33V228.1h43.8c12.4,0,21.9,2.2,29.2,7.3c7.3,5.1,12.4,13.9,12.4,24.8
		c0,20.5-12.4,27.8-16.8,30.4L348.6,328.9z M305.8,254.9c-1.5-1.2-3.7-1.9-7.3-1.9h-8.3v17.5h8.3c3.7,0,6-0.7,7.3-1.8
		c1.6-1.2,3.7-2.6,3.7-7S307.3,255.9,305.8,254.9z"/>
</g>
<g enable-background="new    ">
	<path d="M445.8,228.1l-35.1,61.4V329h-33v-39.5l-34.9-61.4h36.5l14.9,34l15.1-34H445.8z"/>
</g>
<g enable-background="new    ">
	<path d="M138.1,460.5h-32.4l-1.2-57.7l-13.2,57.7H62.8l-13.2-57.7l-1.2,57.7H16.1l5.8-100.8h42.4L77,414.4l12.9-54.8h42.4
		L138.1,460.5z"/>
</g>
<g enable-background="new    ">
	<path d="M217.7,460.5h-73.1V359.6h71.6v26h-38.7v11H214v25.9h-36.5v11.7h40.2L217.7,460.5L217.7,460.5z"/>
</g>
<g enable-background="new    ">
	<path d="M291.7,460.5h-67.2V359.6h32.9v73.8h34.3V460.5z"/>
	<path d="M376.4,453.9c-6.6,4.4-16.8,6.6-26.3,6.6h-49.7V359.6H342c8.8,0,18.3,0.7,25.6,3.7c7.3,2.9,14.9,10.2,14.9,21.9
		s-7.6,19.7-14.2,22.4c11.7,3.2,19.3,12,19.3,23.7S383,449.5,376.4,453.9z M347.2,384.9c-2.2-1.5-3.7-1.5-7.3-1.5h-6.6V398h6.6
		c3.7,0,5.1-0.1,7.3-1.6c2.2-1.5,2.9-3.2,2.9-5.7C350.1,388.1,349.4,386.4,347.2,384.9z M351.6,421.7c-2.2-1.5-3.7-1.8-7.3-1.8h-11
		V436h11c3.7,0,5.1-0.4,7.3-1.9c2.2-1.5,2.9-3.7,2.9-6.1C354.5,425.4,353.8,423.2,351.6,421.7z"/>
</g>
<g enable-background="new    ">
	<path d="M447.3,462.2c-31.4,0-54.8-19.1-54.8-52s23.4-52.2,54.8-52.2s54.8,19.3,54.8,52.2S478.7,462.2,447.3,462.2z M447.3,385.9
		c-13.2,0-21.6,9.6-21.6,23.5s8.5,23.5,21.6,23.5c13.2,0,21.5-9.6,21.5-23.5C468.7,395.6,460.4,385.9,447.3,385.9z"/>
</g>
<g enable-background="new    ">
	<path d="M601.1,417.4c0,16.1-3.7,25.6-11,32.9s-19,11.8-35.1,11.8s-27.8-4.5-35.1-11.8s-11-16.8-11-32.9v-57.7h33.2v59.2
		c0,6,1.2,8.8,3.4,11s5.1,3.7,9.5,3.7s7.3-1.5,9.5-3.7s3.2-5.1,3.2-11v-59.2H601L601.1,417.4L601.1,417.4z"/>
</g>
<g enable-background="new    ">
	<path d="M701.1,460.5h-38L647,426.8h-4.2v33.6h-33V359.6h43.8c12.4,0,21.9,2.2,29.2,7.3c7.3,5.1,12.4,13.9,12.4,24.8
		c0,20.5-12.4,27.8-16.8,30.4L701.1,460.5z M658.3,386.4c-1.5-1.2-3.7-1.9-7.3-1.9h-8.3V402h8.3c3.7,0,6-0.7,7.3-1.8
		c1.6-1.2,3.7-2.6,3.7-7C661.9,388.9,659.7,387.4,658.3,386.4z"/>
</g>
<g enable-background="new    ">
	<path d="M804.4,460.5H770l-30.7-56.3c0,0,0.7,11,0.7,18.3v38h-32.1V359.6h35.8l29.2,56.3c0,0-0.7-11-0.7-18.3v-38h32.1v100.9H804.4
		z"/>
</g>
<g enable-background="new    ">
	<path d="M885.3,460.5h-73.1V359.6h71.6v26h-38.7v11h36.5v25.9h-36.5v11.7h40.2V460.5z"/>
</g>
<g enable-background="new    ">
	<path d="M910.9,462.1c-10.7,0-18-5.6-18-15.8c0-10.2,7.3-15.9,18-15.9c10.5,0,17.8,5.7,17.8,15.9S921.4,462.1,910.9,462.1z"/>
</g>
</svg>
