<?xml version="1.0" encoding="utf-8"?>
<!-- Generator: Adobe Illustrator 18.1.1, SVG Export Plug-In . SVG Version: 6.00 Build 0)  -->
<svg version="1.1" id="Layer_1" xmlns="http://www.w3.org/2000/svg" xmlns:xlink="http://www.w3.org/1999/xlink" x="0px" y="0px"
	 viewBox="0 0 960 560" enable-background="new 0 0 960 560" xml:space="preserve">
<g id="Layer_2">
	<g>
		
			<polyline fill="none" stroke="#ED1C24" stroke-width="5" stroke-linecap="round" stroke-linejoin="round" stroke-miterlimit="10" points="
			315.9,175 428.5,175 371.8,529.5 315.9,529.5 		"/>
		
			<polyline fill="none" stroke="#ED1C24" stroke-width="5" stroke-linecap="round" stroke-linejoin="round" stroke-miterlimit="10" points="
			315.9,175 204.3,175 260.1,529.5 315.9,529.5 		"/>
		
			<line fill="none" stroke="#ED1C24" stroke-width="5" stroke-linecap="round" stroke-linejoin="round" stroke-miterlimit="10" x1="280.5" y1="267.2" x2="244.1" y2="98"/>
		
			<line fill="none" stroke="#ED1C24" stroke-width="5" stroke-linecap="round" stroke-linejoin="round" stroke-miterlimit="10" x1="244.1" y1="98" x2="185.7" y2="98"/>
		
			<polyline fill="none" stroke="#ED1C24" stroke-width="5" stroke-linecap="round" stroke-linejoin="round" stroke-miterlimit="10" points="
			429.4,128.1 429.4,175 476.3,175 		"/>
		<path fill="none" stroke="#ED1C24" stroke-width="5" stroke-linecap="round" stroke-linejoin="round" stroke-miterlimit="10" d="
			M428.5,175"/>
		
			<line fill="none" stroke="#ED1C24" stroke-width="5" stroke-linecap="round" stroke-linejoin="round" stroke-miterlimit="10" x1="461.3" y1="207.8" x2="428.5" y2="175"/>
		
			<polyline fill="none" stroke="#ED1C24" stroke-width="5" stroke-linecap="round" stroke-linejoin="round" stroke-miterlimit="10" points="
			396.6,142.3 429.4,175 462.1,142.3 		"/>
		<path fill="none" stroke="#ED1C24" stroke-width="5" stroke-linecap="round" stroke-linejoin="round" stroke-miterlimit="10" d="
			M368.3,171.1c2.8-32.9,31.8-57.4,64.6-54.6c32.9,2.8,57.4,31.8,54.6,64.6c-2.8,32.9-31.8,57.4-64.6,54.6"/>
	</g>
</g>
<path fill="none" stroke="#ED1C24" stroke-width="5" stroke-linecap="round" stroke-linejoin="round" stroke-miterlimit="10" d="
	M234.5,287.6L269.9,518h93l42.8-266.6c0,0-21.3,24.2-86.1,20C265.2,261.4,234.5,287.6,234.5,287.6z"/>
</svg>
